<svg width="618" height="134" viewBox="0 0 618 134" fill="none" xmlns="http://www.w3.org/2000/svg">
<path d="M69 17V117M109.659 31.6447L28.3414 102.355M126.5 67H11.5M109.659 102.355L28.3414 31.6447" stroke="#C1F17E" stroke-width="10" stroke-linecap="round" stroke-linejoin="round"/>
<path d="M146.992 114.5V98.5H152.496C156.592 98.5 159.835 97.348 162.224 95.044C164.699 92.6547 165.936 89.4973 165.936 85.572V19.14H183.472V84.932C183.472 90.82 182.192 95.9827 179.632 100.42C177.157 104.857 173.573 108.313 168.88 110.788C164.272 113.263 158.811 114.5 152.496 114.5H146.992ZM230.394 116.036C224.335 116.036 218.703 114.927 213.498 112.708C208.378 110.489 203.941 107.417 200.186 103.492C196.517 99.4813 193.829 94.8307 192.122 89.54L206.586 83.268C208.89 88.7293 212.218 93.0387 216.57 96.196C220.922 99.268 225.829 100.804 231.29 100.804C234.362 100.804 237.007 100.335 239.226 99.396C241.53 98.372 243.279 97.0067 244.474 95.3C245.754 93.5933 246.394 91.5453 246.394 89.156C246.394 86.34 245.541 84.036 243.834 82.244C242.213 80.3667 239.738 78.916 236.41 77.892L218.106 72.004C210.682 69.7 205.093 66.244 201.338 61.636C197.583 57.028 195.706 51.6093 195.706 45.38C195.706 39.9187 197.029 35.0973 199.674 30.916C202.405 26.7347 206.159 23.492 210.938 21.188C215.802 18.7987 221.349 17.604 227.578 17.604C233.295 17.604 238.543 18.628 243.322 20.676C248.101 22.6387 252.197 25.412 255.61 28.996C259.109 32.4947 261.711 36.6333 263.418 41.412L249.082 47.812C247.205 43.0333 244.389 39.364 240.634 36.804C236.879 34.1587 232.527 32.836 227.578 32.836C224.677 32.836 222.117 33.348 219.898 34.372C217.679 35.3107 215.93 36.676 214.65 38.468C213.455 40.1747 212.858 42.2227 212.858 44.612C212.858 47.2573 213.711 49.604 215.418 51.652C217.125 53.6147 219.727 55.1507 223.226 56.26L240.762 61.764C248.357 64.2387 254.031 67.652 257.786 72.004C261.626 76.356 263.546 81.732 263.546 88.132C263.546 93.5933 262.138 98.4147 259.322 102.596C256.506 106.777 252.623 110.063 247.674 112.452C242.725 114.841 236.965 116.036 230.394 116.036ZM321.077 116.036C314.08 116.036 307.552 114.799 301.493 112.324C295.434 109.849 290.144 106.393 285.621 101.956C281.098 97.5187 277.557 92.3133 274.997 86.34C272.522 80.2813 271.285 73.7533 271.285 66.756C271.285 59.6733 272.522 53.1453 274.997 47.172C277.472 41.1987 280.97 35.9933 285.493 31.556C290.016 27.1187 295.306 23.7053 301.365 21.316C307.424 18.8413 313.994 17.604 321.077 17.604C328.16 17.604 334.73 18.8413 340.789 21.316C346.848 23.7907 352.138 27.2467 356.661 31.684C361.184 36.036 364.682 41.1987 367.157 47.172C369.717 53.1453 370.997 59.6733 370.997 66.756C370.997 73.7533 369.717 80.2813 367.157 86.34C364.597 92.3133 361.056 97.5187 356.533 101.956C352.01 106.393 346.72 109.849 340.661 112.324C334.688 114.799 328.16 116.036 321.077 116.036ZM321.077 100.164C325.77 100.164 330.08 99.3533 334.005 97.732C337.93 96.0253 341.344 93.6787 344.245 90.692C347.232 87.7053 349.493 84.164 351.029 80.068C352.65 75.972 353.461 71.5347 353.461 66.756C353.461 61.9773 352.65 57.5827 351.029 53.572C349.493 49.476 347.232 45.9347 344.245 42.948C341.344 39.876 337.93 37.5293 334.005 35.908C330.08 34.2867 325.77 33.476 321.077 33.476C316.469 33.476 312.202 34.2867 308.277 35.908C304.352 37.5293 300.896 39.876 297.909 42.948C295.008 45.9347 292.746 49.476 291.125 53.572C289.504 57.5827 288.693 61.9773 288.693 66.756C288.693 71.5347 289.504 75.972 291.125 80.068C292.746 84.164 295.008 87.7053 297.909 90.692C300.896 93.6787 304.352 96.0253 308.277 97.732C312.202 99.3533 316.469 100.164 321.077 100.164ZM381.356 114.5V19.14H394.924L447.404 89.796L440.364 91.204V19.14H457.772V114.5H444.076L392.364 43.332L398.764 41.924V114.5H381.356ZM496.967 114.5V89.668H472.135V75.204H496.967V50.5H511.431V75.204H536.135V89.668H511.431V114.5H496.967ZM576.347 114.5V89.668H551.515V75.204H576.347V50.5H590.811V75.204H615.515V89.668H590.811V114.5H576.347Z" fill="#C1F17E"/>
</svg>
